<svg xmlns="http://www.w3.org/2000/svg" width="868" height="440" viewBox="0 0 868 440" role="img" aria-label="Logo with transparent background">
  <path fill="#000000" d="M143 67 L47 161 L141 256 L168 230 L100 161 L168 93 Z"/>
  <path fill="#6BDB58" fill-rule="evenodd" d="M208 76 L208 327 L247 327 L247 183 L249 181 L635 181 L637 183 L637 327 L675 327 L675 75 Z M247 116 L251 113 L635 113 L637 115 L637 141 L635 143 L249 143 L247 141 Z"/>
  <path fill="#000000" d="M741 67 L716 94 L783 160 L716 229 L742 256 L836 160 Z"/>
</svg>
